<?xml version="1.0" encoding="utf-8"?>
<!-- Generator: Adobe Illustrator 27.5.0, SVG Export Plug-In . SVG Version: 6.00 Build 0)  -->
<svg version="1.1" xmlns="http://www.w3.org/2000/svg" xmlns:xlink="http://www.w3.org/1999/xlink" x="0px" y="0px"
	 viewBox="0 0 750 500" style="enable-background:new 0 0 750 500;" xml:space="preserve">
<g id="BACKGROUND">
	<rect y="-0.005" style="fill:#DEF0F3;" width="750" height="500"/>
</g>
<g id="OBJECTS">
	<rect y="444.578" style="fill:#838A8F;" width="750" height="55.417"/>
	<rect y="424.879" style="fill:#F2FDFF;" width="750" height="19.699"/>
	<g>
		<g>
			<g>
				
					<rect x="109.247" y="78.301" transform="matrix(-1.836970e-16 1 -1 -1.836970e-16 390.5565 22.9634)" style="fill:#9B6C67;" width="149.099" height="256.919"/>
				
					<rect x="120.553" y="89.607" transform="matrix(-1.836970e-16 1 -1 -1.836970e-16 390.5565 22.9633)" style="fill:#503849;" width="126.487" height="234.307"/>
			</g>
			
				<rect x="131.169" y="100.222" transform="matrix(-1.836970e-16 1 -1 -1.836970e-16 390.5565 22.9634)" style="fill:#FFFFFF;" width="105.256" height="213.075"/>
			<path style="fill:#FFEE99;" d="M77.259,201.701c0,0,27.961-17.957,52.364-13.353c13.641,2.574,8.288,44.663,37.756,47.426
				c29.468,2.763,40.979-30.172,69.987-26.367c29.008,3.805,37.756,49.981,37.756,49.981H77.259V201.701z"/>
			<polygon style="fill:#FF7566;" points="113.968,217.14 205.596,176.376 207.898,183.283 118.573,227.486 			"/>
			<polygon style="fill:#FFBF6B;" points="253.636,198.566 230,223.49 253.022,229.268 270.212,209.989 			"/>
			
				<ellipse transform="matrix(0.7382 -0.6746 0.6746 0.7382 -53.3004 215.4202)" style="fill:#434045;" cx="250.873" cy="176.376" rx="14.639" ry="14.639"/>
			<polygon style="fill:#FF7566;" points="165.231,210.449 198.076,195.424 200.224,199.705 167.073,215.667 			"/>
			<path style="fill:#FFBF6B;" d="M111.512,154.132c0,0,7.981,21.937,33.152,22.244c25.171,0.307,33.152-19.032,43.896-15.962
				c10.744,3.07,27.013,4.334,34.687-6.282H111.512z"/>
			<polygon style="fill:#434045;" points="77.259,229.788 96.011,176.376 100.155,176.38 77.259,244.061 			"/>
			<polygon style="fill:#434045;" points="77.259,259.388 113.047,171.703 117.191,171.707 83.119,259.388 			"/>
			<polygon style="fill:#434045;" points="290.334,206.76 232.302,259.388 239.669,259.388 290.334,215.546 			"/>
			<polygon style="fill:#855D58;" points="55.337,281.309 66.643,270.003 300.95,270.003 312.256,281.309 			"/>
			<polygon style="fill:#855D58;" points="55.337,132.21 66.643,143.516 300.95,143.516 312.256,132.21 			"/>
		</g>
		<g>
			<g>
				
					<rect x="358.855" y="92.558" transform="matrix(-1 -1.224647e-16 1.224647e-16 -1 851.0543 390.8483)" style="fill:#9B6C67;" width="133.343" height="205.732"/>
				
					<rect x="368.967" y="102.669" transform="matrix(-1 -1.224647e-16 1.224647e-16 -1 851.0543 390.8483)" style="fill:#503849;" width="113.121" height="185.51"/>
			</g>
			
				<rect x="379.582" y="113.285" transform="matrix(-1 -1.224647e-16 1.224647e-16 -1 851.0543 390.8482)" style="fill:#FFFFFF;" width="91.889" height="164.278"/>
			<polygon style="fill:#855D58;" points="358.855,92.558 368.967,102.669 482.088,102.669 492.199,92.558 			"/>
			<polygon style="fill:#855D58;" points="492.199,298.29 482.088,288.179 368.967,288.179 358.855,298.29 			"/>
			<path style="fill:#A2D5CF;" d="M387.771,127.109v68.315c0,0,13.483,0,25.946,2.222c13.805,2.461,18.496-2.926,32.461-1.01
				c12.662,1.737,17.106-1.212,17.106-1.212v-68.315H387.771z"/>
			<path style="fill:#ADE3DD;" d="M387.771,200.55c0,0,6.837-0.921,19.499,2.993c12.662,3.914,31.54-3.412,37.066-3.087
				c5.525,0.324,18.948,2.115,18.948,2.115v2.126c0,0-16.185-2.637-18.487-2.126c-2.302,0.512-24.864,6.267-30.389,5.346
				c-5.525-0.921-20.811-5.525-26.636-4.835V200.55z"/>
			<path style="fill:#ADE3DD;" d="M387.771,208.016c0,0,7.528-1.051,10.636,0c3.108,1.052,11.281,8.649,22.792,7.613
				c11.511-1.036,13.813-5.769,19.684-6.223c5.871-0.454,9.094,4.036,12.547,3.805c3.453-0.23,6.125-3.805,9.854-3.805v2.231
				c0,0-4.559,2.228-9.048,4.089c-4.489,1.86-9.439-4.089-13.238-4.089c-3.799,0-10.59,6.984-20.49,6.984
				c-9.899,0-20.49-7.943-23.252-8.518c-2.763-0.576-9.485,0-9.485,0V208.016z"/>
			<path style="fill:#C3FFF9;" d="M463.283,244.307c0,0-7.528,1.052-10.636,0c-3.108-1.051-11.281-8.649-22.792-7.613
				c-11.511,1.036-13.813,5.769-19.684,6.223c-5.871,0.454-9.094-4.036-12.547-3.805c-3.453,0.23-6.125,3.805-9.854,3.805v-2.231
				c0,0,4.559-2.228,9.048-4.089c4.489-1.86,9.439,4.089,13.238,4.089c3.799,0,10.59-6.985,20.49-6.985s20.49,7.943,23.252,8.518
				c2.763,0.576,9.485,0,9.485,0V244.307z"/>
			<path style="fill:#B9F2EC;" d="M387.771,219.263c0,0,6.607-2.138,8.909-1.677c2.302,0.46,2.763,12.432,8.518,12.662
				c5.755,0.23,13.123-8.979,17.957-8.518c4.835,0.46,11.972,6.446,20.029,6.446c8.058,0,11.91-10.655,20.099-10.655v3.058
				c0,0-6.746,3.104-12.501,8.689c-5.756,5.585-23.252-3.394-27.396-4.315c-4.144-0.921-14.043,8.748-18.648,8.748
				c-4.604,0-7.828-12.547-9.9-13.008c-2.072-0.46-7.067,2.796-7.067,2.796V219.263z"/>
		</g>
		<g>
			<g>
				
					<rect x="552.099" y="87.315" transform="matrix(-1.836970e-16 1 -1 -1.836970e-16 781.9777 -439.069)" style="fill:#976554;" width="116.849" height="168.279"/>
				
					<rect x="561.955" y="97.172" transform="matrix(-1.836970e-16 1 -1 -1.836970e-16 781.9777 -439.069)" style="fill:#FFFFFF;" width="97.136" height="148.565"/>
			</g>
			<polygon style="fill:#855D58;" points="526.384,113.03 536.241,122.886 684.806,122.886 694.663,113.03 			"/>
			<polygon style="fill:#855D58;" points="526.384,229.879 536.241,220.022 684.806,220.022 694.663,229.879 			"/>
			
				<rect x="572.571" y="107.787" transform="matrix(-1.836970e-16 1 -1 -1.836970e-16 781.9777 -439.069)" style="fill:#D1D8EB;" width="75.904" height="127.334"/>
			<path style="fill:#C4CADB;" d="M546.857,171.454c0,0,9.137-10.733,16.964-11.654s7.828,27.958,21.641,27.792
				c13.813-0.166,25.785-17.978,38.677-13.907c12.892,4.072,8.288,17.756,17.497,13.907c9.209-3.849,2.302-20.425,10.59-19.504
				c8.288,0.921,8.935,13.353,21.964,12.432v-47.018H546.857V171.454z"/>
			<path style="fill:#E2EBFF;" d="M546.857,180.996c0,0,6.192,2.819,13.999-3.47c7.807-6.289,11.06-29.06,19.952-21.904
				c8.892,7.157,3.904,24.94,10.843,22.988s5.616-17.783,12.892-14.747c7.276,3.036-5.519,23.205,9.662,21.47
				c15.181-1.735,15.398-23.104,24.506-18.217c9.108,4.887,10.843,20.819,19.301,17.349c8.458-3.47,10.67-16.482,16.178-16.482
				v1.858c0,0-4.034,4.214-8.371,10.72c-4.337,6.506-11.494,9.325-19.301-0.867c-7.807-10.193-9.976-13.229-13.446-8.241
				s-9.651,16.155-21.196,16.145c-9.067-0.007-6.791-10.073-7.322-19.182c-0.531-9.108-7.699,13.771-15.94,13.229
				c-4.79-0.315-2.386-23.964-11.494-23.639c-4.139,0.148-9.792,34.265-30.264,25.59V180.996z"/>
		</g>
		<g>
			<rect x="151.566" y="298.29" style="fill:#4C4255;" width="64.462" height="30.953"/>
			<rect x="160.933" y="307.756" style="fill:#FFFFFF;" width="18.725" height="3.07"/>
			<rect x="160.933" y="316.351" style="fill:#FFFFFF;" width="33.766" height="3.07"/>
		</g>
		<g>
			<rect x="393.296" y="313.767" style="fill:#4C4255;" width="64.462" height="30.953"/>
			<rect x="402.664" y="323.233" style="fill:#FFFFFF;" width="18.725" height="3.07"/>
			<rect x="402.664" y="331.828" style="fill:#FFFFFF;" width="33.766" height="3.07"/>
		</g>
		<g>
			<rect x="578.292" y="243.484" style="fill:#4C4255;" width="64.462" height="30.953"/>
			<rect x="587.66" y="252.95" style="fill:#FFFFFF;" width="18.725" height="3.07"/>
			<rect x="587.66" y="261.545" style="fill:#FFFFFF;" width="33.766" height="3.07"/>
		</g>
	</g>
	<g>
		<path style="fill:none;stroke:#D43121;stroke-width:2;stroke-miterlimit:10;" d="M374.972,343.951
			c0,0-51.203,43.342-144.856,43.342S88.314,343.951,88.314,343.951"/>
		<path style="fill:none;stroke:#D43121;stroke-width:2;stroke-miterlimit:10;" d="M375,343.951c0,0,48.15,43.342,141.803,43.342
			c93.653,0,144.856-43.342,144.856-43.342"/>
		<g>
			<g>
				<rect x="85.892" y="345.625" style="fill:#BBC6CC;" width="4.844" height="98.953"/>
				<path style="fill:#D2DEE6;" d="M90.736,342.276h-2.422h-2.422c-2.202,1.762,0,3.349,0,3.349h2.422h2.422
					C90.736,345.625,92.938,344.038,90.736,342.276z"/>
				<path style="fill:#BBC6CC;" d="M88.314,332.919L88.314,332.919c0-0.001-0.018-0.001-0.028-0.001c-0.009,0-0.027,0-0.027,0v0.001
					c-0.539,0.014-4.899,0.237-4.899,3.852c0,3.853,2.532,5.505,2.532,5.505h2.367h0.055h2.367c0,0,2.532-1.651,2.532-5.505
					C93.213,333.156,88.853,332.933,88.314,332.919z"/>
				<path style="fill:#D2DEE6;" d="M105.305,440.578H71.323c-2.209,0-4,1.791-4,4l0,0h41.983l0,0
					C109.305,442.369,107.514,440.578,105.305,440.578z"/>
			</g>
			<g>
				<rect x="372.578" y="345.625" style="fill:#BBC6CC;" width="4.844" height="98.953"/>
				<path style="fill:#D2DEE6;" d="M377.422,342.276H375h-2.422c-2.202,1.762,0,3.349,0,3.349H375h2.422
					C377.422,345.625,379.624,344.038,377.422,342.276z"/>
				<path style="fill:#BBC6CC;" d="M375,332.919L375,332.919c0-0.001-0.018-0.001-0.028-0.001c-0.009,0-0.028,0-0.028,0v0.001
					c-0.539,0.014-4.899,0.237-4.899,3.852c0,3.853,2.532,5.505,2.532,5.505h2.367H375h2.367c0,0,2.532-1.651,2.532-5.505
					C379.899,333.156,375.539,332.933,375,332.919z"/>
				<path style="fill:#D2DEE6;" d="M391.991,440.578h-33.983c-2.209,0-4,1.791-4,4l0,0h41.983l0,0
					C395.991,442.369,394.2,440.578,391.991,440.578z"/>
			</g>
			<g>
				<rect x="659.264" y="345.625" style="fill:#BBC6CC;" width="4.844" height="98.953"/>
				<path style="fill:#D2DEE6;" d="M664.108,342.276h-2.422h-2.422c-2.202,1.762,0,3.349,0,3.349h2.422h2.422
					C664.108,345.625,666.31,344.038,664.108,342.276z"/>
				<path style="fill:#BBC6CC;" d="M661.686,332.919L661.686,332.919c0-0.001-0.018-0.001-0.028-0.001c-0.009,0-0.027,0-0.027,0
					v0.001c-0.539,0.014-4.899,0.237-4.899,3.852c0,3.853,2.532,5.505,2.532,5.505h2.367h0.055h2.367c0,0,2.532-1.651,2.532-5.505
					C666.585,333.156,662.225,332.933,661.686,332.919z"/>
				<path style="fill:#D2DEE6;" d="M678.677,440.578h-33.982c-2.209,0-4,1.791-4,4l0,0h41.983l0,0
					C682.677,442.369,680.887,440.578,678.677,440.578z"/>
			</g>
		</g>
	</g>
	<g>
		<g>
			<g>
				<path style="fill:#C0CFD1;" d="M102.669,69.162H75.617V55.636c0-7.47,6.056-13.526,13.526-13.526l0,0
					c7.47,0,13.526,6.056,13.526,13.526V69.162z"/>
				<rect x="87.858" style="fill:#C0CFD1;" width="2.571" height="48.289"/>
			</g>
		</g>
		<g>
			<g>
				<path style="fill:#C0CFD1;" d="M505.725,69.162h-27.052V55.636c0-7.47,6.056-13.526,13.526-13.526l0,0
					c7.47,0,13.526,6.056,13.526,13.526V69.162z"/>
				<rect x="490.913" style="fill:#C0CFD1;" width="2.571" height="48.289"/>
			</g>
		</g>
		<g>
			<g>
				<path style="fill:#C0CFD1;" d="M163.756,94.289h-27.052V80.763c0-7.47,6.056-13.526,13.526-13.526l0,0
					c7.47,0,13.526,6.056,13.526,13.526V94.289z"/>
				<rect x="148.945" style="fill:#C0CFD1;" width="2.571" height="73.417"/>
			</g>
		</g>
		<g>
			<g>
				<path style="fill:#C0CFD1;" d="M674.383,94.289h-27.052V80.763c0-7.47,6.056-13.526,13.526-13.526h0
					c7.47,0,13.526,6.056,13.526,13.526V94.289z"/>
				<rect x="659.571" style="fill:#C0CFD1;" width="2.571" height="73.417"/>
			</g>
		</g>
		<g>
			<g>
				<path style="fill:#C0CFD1;" d="M224.23,46.523h-27.052V32.997c0-7.47,6.056-13.526,13.526-13.526l0,0
					c7.47,0,13.526,6.056,13.526,13.526V46.523z"/>
				<rect x="209.418" style="fill:#C0CFD1;" width="2.571" height="25.65"/>
			</g>
		</g>
		<g>
			<g>
				<path style="fill:#C0CFD1;" d="M642.939,46.523h-27.052V32.997c0-7.47,6.056-13.526,13.526-13.526l0,0
					c7.47,0,13.526,6.056,13.526,13.526V46.523z"/>
				<rect x="628.128" style="fill:#C0CFD1;" width="2.571" height="25.65"/>
			</g>
		</g>
	</g>
	<rect y="444.578" style="fill:#90999E;" width="750" height="6.542"/>
	<g>
		<g>
			<g>
				<path style="fill:#40A86C;" d="M706.769,314.949c-3.962,6.304-6.757,21.489-6.757,39.231c0,17.742,2.794,32.927,6.757,39.231
					c3.962-6.304,6.756-21.489,6.756-39.231C713.525,336.438,710.731,321.253,706.769,314.949z"/>
				<path style="fill:#40A86C;" d="M683.92,322.544c-2.43,7.038-1.71,22.461,2.312,39.742c4.021,17.28,10.185,31.437,15.473,36.679
					c2.43-7.038,1.71-22.461-2.312-39.742C695.371,341.942,689.208,327.785,683.92,322.544z"/>
				<path style="fill:#40A86C;" d="M731.219,322.491c-5.432,5.575-11.959,20.598-16.412,38.922
					c-4.453,18.324-5.549,34.667-3.281,42.113c5.432-5.575,11.959-20.598,16.412-38.922
					C732.392,346.281,733.488,329.938,731.219,322.491z"/>
				<path style="fill:#49C07C;" d="M698.825,326.766c-3.44,6.603-4.999,21.964-3.566,39.649c1.433,17.684,5.444,32.594,9.903,38.557
					c3.44-6.603,4.999-21.964,3.566-39.649C707.295,347.639,703.284,332.729,698.825,326.766z"/>
				<path style="fill:#49C07C;" d="M716.694,326.766c3.44,6.603,4.999,21.964,3.566,39.649c-1.433,17.684-5.444,32.594-9.903,38.557
					c-3.44-6.603-4.999-21.964-3.566-39.649C708.224,347.639,712.235,332.729,716.694,326.766z"/>
			</g>
			<g>
				<path style="fill:#858585;" d="M729.666,379.461c0,0.678,0,1.343-0.012,2.009c0,1.222-0.024,2.42-0.048,3.606
					c-0.024,0.883-0.048,1.742-0.073,2.601c-1.343,38.838-11.857,56.902-11.857,56.902h-20.448c0,0-2.505-4.307-5.239-13.261
					c-0.351-1.137-0.702-2.359-1.053-3.654c-1.053-3.896-2.093-8.493-3.001-13.793c-0.399-2.335-0.762-4.803-1.089-7.417
					c-0.714-5.602-1.246-11.869-1.488-18.778c-0.085-2.638-0.133-5.372-0.133-8.215H729.666z"/>
				<rect x="682.802" y="375.686" style="fill:#858585;" width="49.284" height="3.778"/>
				<path style="opacity:0.2;fill:#1F1F1F;" d="M729.663,379.463c0,2.838-0.048,5.576-0.133,8.214h-44.174
					c-0.085-2.638-0.133-5.376-0.133-8.214H729.663z"/>
				<g>
					<path style="fill:#9E9E9E;" d="M689.388,414.101c-0.532,0-1.016-0.085-1.452-0.23c-0.399-2.335-0.762-4.803-1.089-7.417
						c0.641-0.508,1.488-0.823,2.541-0.823C694.845,405.631,694.833,414.101,689.388,414.101z"/>
					<path style="fill:#9E9E9E;" d="M696.679,397.767c-1.168,0-1.17,1.815,0,1.815C697.847,399.582,697.849,397.767,696.679,397.767
						z"/>
					<path style="fill:#9E9E9E;" d="M711.803,396.557c-1.168,0-1.17,1.815,0,1.815C712.97,398.372,712.972,396.557,711.803,396.557z
						"/>
					<path style="fill:#9E9E9E;" d="M704.512,416.823v0.302c0,0.779,1.21,0.78,1.21,0v-0.302
						C705.722,416.044,704.512,416.043,704.512,416.823z"/>
					<path style="fill:#9E9E9E;" d="M718.426,411.378c-2.336,0-2.339,3.63,0,3.63C720.762,415.008,720.766,411.378,718.426,411.378z
						"/>
					<path style="fill:#9E9E9E;" d="M708.747,405.329c-2.336,0-2.339,3.63,0,3.63C711.083,408.958,711.086,405.329,708.747,405.329z
						"/>
					<path style="fill:#9E9E9E;" d="M723.902,398.674c-1.168,0-1.17,1.815,0,1.815C725.07,400.489,725.072,398.674,723.902,398.674z
						"/>
					<path style="fill:#9E9E9E;" d="M706.932,433.459c-0.983,0.044-1.815,0.797-1.815,1.815v0.302c0,0.949,0.835,1.859,1.815,1.815
						c0.983-0.044,1.815-0.797,1.815-1.815v-0.302C708.747,434.325,707.912,433.415,706.932,433.459z"/>
					<path style="fill:#9E9E9E;" d="M693.623,429.224v0.303c0,0.956-0.738,1.67-1.633,1.791c-0.351-1.137-0.702-2.359-1.053-3.654
						c0.254-0.157,0.556-0.242,0.871-0.254C692.788,427.361,693.623,428.281,693.623,429.224z"/>
					<path style="fill:#9E9E9E;" d="M715.099,428.015c-0.983,0.044-1.815,0.797-1.815,1.815v0.302c0,0.949,0.835,1.859,1.815,1.815
						c0.983-0.044,1.815-0.797,1.815-1.815v-0.302C716.914,428.88,716.079,427.971,715.099,428.015z"/>
					<path style="fill:#9E9E9E;" d="M723.266,421.965c-2.336,0-2.339,3.63,0,3.63C725.602,425.595,725.605,421.965,723.266,421.965z
						"/>
					<path style="fill:#9E9E9E;" d="M704.21,419.545c-0.983,0.044-1.815,0.797-1.815,1.815v0.302c0,0.949,0.835,1.859,1.815,1.815
						c0.983-0.044,1.815-0.797,1.815-1.815v-0.302C706.025,420.411,705.19,419.501,704.21,419.545z"/>
					<path style="fill:#9E9E9E;" d="M703.605,392.02c-2.336,0-2.339,3.63,0,3.63C705.94,395.65,705.944,392.02,703.605,392.02z"/>
					<path style="fill:#9E9E9E;" d="M689.62,388.995h-0.163c-0.511,0-1.001,0.449-0.977,0.977c0.024,0.529,0.429,0.977,0.977,0.977
						h0.163c0.511,0,1.001-0.449,0.977-0.977C690.574,389.443,690.168,388.995,689.62,388.995z"/>
					<path style="fill:#9E9E9E;" d="M719.97,388.995c-1.168,0-1.17,1.815,0,1.815C721.137,390.81,721.139,388.995,719.97,388.995z"
						/>
					<path style="fill:#9E9E9E;" d="M715.502,440.114c-0.779,0-0.78,1.21,0,1.21C716.281,441.324,716.282,440.114,715.502,440.114z"
						/>
					<path style="fill:#9E9E9E;" d="M699.193,435.25c-0.067-0.067-0.134-0.134-0.202-0.202c-0.551-0.551-1.407,0.304-0.856,0.855
						c0.067,0.067,0.134,0.134,0.202,0.202C698.889,436.656,699.745,435.801,699.193,435.25z"/>
					<path style="fill:#9E9E9E;" d="M692.111,417.125c-0.779,0-0.78,1.21,0,1.21C692.889,418.335,692.891,417.125,692.111,417.125z"
						/>
					<path style="fill:#9E9E9E;" d="M694.329,421.763v0.403c0,1.557,2.42,1.56,2.42,0v-0.403
						C696.749,420.206,694.329,420.204,694.329,421.763z"/>
					<path style="fill:#9E9E9E;" d="M697.959,390.507c-0.779,0-0.78,1.21,0,1.21C698.737,391.717,698.738,390.507,697.959,390.507z"
						/>
					<path style="fill:#9E9E9E;" d="M702.927,379.461c-0.097,0.823-0.69,1.573-1.742,1.573c-1.053,0-1.645-0.75-1.742-1.573H702.927
						z"/>
					<path style="fill:#9E9E9E;" d="M688.06,383.073c-0.019,0.001-0.039,0.002-0.058,0.003c-0.272,0.016-0.505,0.178-0.583,0.444
						c-0.047,0.16-0.045,0.298-0.002,0.458c0.074,0.273,0.316,0.423,0.583,0.444l0.058,0.005c0.432,0.035,0.614-0.325,0.564-0.661
						C688.683,383.425,688.503,383.047,688.06,383.073z"/>
					<path style="fill:#9E9E9E;" d="M729.654,381.469c0,1.222-0.024,2.42-0.048,3.606c-0.387,0.363-0.92,0.593-1.597,0.593
						c-3.122,0-3.122-4.84,0-4.84C728.723,380.828,729.267,381.082,729.654,381.469z"/>
					<path style="fill:#9E9E9E;" d="M709.453,384.861v0.202c0,1.557,2.42,1.56,2.42,0v-0.202
						C711.873,383.304,709.453,383.302,709.453,384.861z"/>
					<path style="fill:#9E9E9E;" d="M703.081,440.114c-1.557,0-1.56,2.42,0,2.42C704.638,442.534,704.641,440.114,703.081,440.114z"
						/>
				</g>
			</g>
		</g>
		<g>
			<g>
				<path style="fill:#40A86C;" d="M41.88,314.949c-3.962,6.304-6.757,21.489-6.757,39.231c0,17.742,2.794,32.927,6.757,39.231
					c3.962-6.304,6.756-21.489,6.756-39.231C48.637,336.438,45.843,321.253,41.88,314.949z"/>
				<path style="fill:#40A86C;" d="M19.031,322.544c-2.43,7.038-1.71,22.461,2.312,39.742c4.021,17.28,10.185,31.437,15.473,36.679
					c2.43-7.038,1.71-22.461-2.312-39.742C30.482,341.942,24.319,327.785,19.031,322.544z"/>
				<path style="fill:#40A86C;" d="M66.331,322.491c-5.432,5.575-11.959,20.598-16.412,38.922
					c-4.453,18.324-5.549,34.667-3.281,42.113c5.432-5.575,11.959-20.598,16.412-38.922
					C67.503,346.281,68.599,329.938,66.331,322.491z"/>
				<path style="fill:#49C07C;" d="M33.937,326.766c-3.44,6.603-4.999,21.964-3.566,39.649s5.444,32.594,9.903,38.557
					c3.44-6.603,4.999-21.964,3.566-39.649C42.407,347.639,38.395,332.729,33.937,326.766z"/>
				<path style="fill:#49C07C;" d="M51.805,326.766c3.44,6.603,4.999,21.964,3.566,39.649c-1.433,17.684-5.444,32.594-9.903,38.557
					c-3.44-6.603-4.999-21.964-3.566-39.649C43.335,347.639,47.347,332.729,51.805,326.766z"/>
			</g>
			<g>
				<path style="fill:#858585;" d="M64.778,379.461c0,0.678,0,1.343-0.012,2.009c0,1.222-0.024,2.42-0.048,3.606
					c-0.024,0.883-0.048,1.742-0.073,2.601c-1.343,38.838-11.857,56.902-11.857,56.902H32.34c0,0-2.505-4.307-5.239-13.261
					c-0.351-1.137-0.702-2.359-1.053-3.654c-1.053-3.896-2.093-8.493-3.001-13.793c-0.399-2.335-0.762-4.803-1.089-7.417
					c-0.714-5.602-1.246-11.869-1.488-18.778c-0.085-2.638-0.133-5.372-0.133-8.215H64.778z"/>
				<rect x="17.914" y="375.686" style="fill:#858585;" width="49.284" height="3.778"/>
				<path style="opacity:0.2;fill:#1F1F1F;" d="M64.775,379.463c0,2.838-0.049,5.576-0.133,8.214H20.468
					c-0.085-2.638-0.133-5.376-0.133-8.214H64.775z"/>
				<g>
					<path style="fill:#9E9E9E;" d="M24.5,414.101c-0.532,0-1.016-0.085-1.452-0.23c-0.399-2.335-0.762-4.803-1.089-7.417
						c0.641-0.508,1.488-0.823,2.541-0.823C29.956,405.631,29.944,414.101,24.5,414.101z"/>
					<path style="fill:#9E9E9E;" d="M31.79,397.767c-1.168,0-1.17,1.815,0,1.815C32.958,399.582,32.96,397.767,31.79,397.767z"/>
					<path style="fill:#9E9E9E;" d="M46.914,396.557c-1.168,0-1.17,1.815,0,1.815C48.082,398.372,48.084,396.557,46.914,396.557z"/>
					<path style="fill:#9E9E9E;" d="M39.624,416.823v0.302c0,0.779,1.21,0.78,1.21,0v-0.302
						C40.833,416.044,39.624,416.043,39.624,416.823z"/>
					<path style="fill:#9E9E9E;" d="M53.538,411.378c-2.336,0-2.339,3.63,0,3.63C55.873,415.008,55.877,411.378,53.538,411.378z"/>
					<path style="fill:#9E9E9E;" d="M43.858,405.329c-2.335,0-2.339,3.63,0,3.63C46.194,408.958,46.198,405.329,43.858,405.329z"/>
					<path style="fill:#9E9E9E;" d="M59.013,398.674c-1.168,0-1.17,1.815,0,1.815C60.181,400.489,60.183,398.674,59.013,398.674z"/>
					<path style="fill:#9E9E9E;" d="M42.043,433.459c-0.983,0.044-1.815,0.797-1.815,1.815v0.302c0,0.949,0.835,1.859,1.815,1.815
						c0.983-0.044,1.815-0.797,1.815-1.815v-0.302C43.858,434.325,43.024,433.415,42.043,433.459z"/>
					<path style="fill:#9E9E9E;" d="M28.734,429.224v0.303c0,0.956-0.738,1.67-1.633,1.791c-0.351-1.137-0.702-2.359-1.053-3.654
						c0.254-0.157,0.557-0.242,0.871-0.254C27.9,427.361,28.734,428.281,28.734,429.224z"/>
					<path style="fill:#9E9E9E;" d="M50.21,428.015c-0.983,0.044-1.815,0.797-1.815,1.815v0.302c0,0.949,0.835,1.859,1.815,1.815
						c0.983-0.044,1.815-0.797,1.815-1.815v-0.302C52.025,428.88,51.19,427.971,50.21,428.015z"/>
					<path style="fill:#9E9E9E;" d="M58.377,421.965c-2.336,0-2.339,3.63,0,3.63C60.713,425.595,60.717,421.965,58.377,421.965z"/>
					<path style="fill:#9E9E9E;" d="M39.321,419.545c-0.983,0.044-1.815,0.797-1.815,1.815v0.302c0,0.949,0.835,1.859,1.815,1.815
						c0.983-0.044,1.815-0.797,1.815-1.815v-0.302C41.136,420.411,40.301,419.501,39.321,419.545z"/>
					<path style="fill:#9E9E9E;" d="M38.716,392.02c-2.336,0-2.339,3.63,0,3.63C41.052,395.65,41.056,392.02,38.716,392.02z"/>
					<path style="fill:#9E9E9E;" d="M24.732,388.995h-0.163c-0.511,0-1.001,0.449-0.977,0.977c0.024,0.529,0.429,0.977,0.977,0.977
						h0.163c0.511,0,1.001-0.449,0.977-0.977C25.685,389.443,25.279,388.995,24.732,388.995z"/>
					<path style="fill:#9E9E9E;" d="M55.081,388.995c-1.168,0-1.17,1.815,0,1.815C56.249,390.81,56.251,388.995,55.081,388.995z"/>
					<path style="fill:#9E9E9E;" d="M50.614,440.114c-0.778,0-0.78,1.21,0,1.21C51.392,441.324,51.393,440.114,50.614,440.114z"/>
					<path style="fill:#9E9E9E;" d="M34.304,435.25c-0.067-0.067-0.134-0.134-0.202-0.202c-0.551-0.551-1.407,0.304-0.856,0.855
						c0.067,0.067,0.134,0.134,0.202,0.202C34,436.656,34.856,435.801,34.304,435.25z"/>
					<path style="fill:#9E9E9E;" d="M27.222,417.125c-0.779,0-0.78,1.21,0,1.21C28,418.335,28.002,417.125,27.222,417.125z"/>
					<path style="fill:#9E9E9E;" d="M29.44,421.763v0.403c0,1.557,2.42,1.56,2.42,0v-0.403
						C31.86,420.206,29.44,420.204,29.44,421.763z"/>
					<path style="fill:#9E9E9E;" d="M33.07,390.507c-0.778,0-0.78,1.21,0,1.21C33.848,391.717,33.85,390.507,33.07,390.507z"/>
					<path style="fill:#9E9E9E;" d="M38.039,379.461c-0.097,0.823-0.69,1.573-1.742,1.573c-1.053,0-1.646-0.75-1.742-1.573H38.039z"
						/>
					<path style="fill:#9E9E9E;" d="M23.172,383.073c-0.019,0.001-0.039,0.002-0.058,0.003c-0.272,0.016-0.505,0.178-0.583,0.444
						c-0.047,0.16-0.045,0.298-0.002,0.458c0.074,0.273,0.316,0.423,0.583,0.444l0.058,0.005c0.433,0.035,0.614-0.325,0.564-0.661
						C23.795,383.425,23.614,383.047,23.172,383.073z"/>
					<path style="fill:#9E9E9E;" d="M64.766,381.469c0,1.222-0.024,2.42-0.048,3.606c-0.387,0.363-0.92,0.593-1.597,0.593
						c-3.121,0-3.121-4.84,0-4.84C63.834,380.828,64.378,381.082,64.766,381.469z"/>
					<path style="fill:#9E9E9E;" d="M44.564,384.861v0.202c0,1.557,2.42,1.56,2.42,0v-0.202
						C46.984,383.304,44.564,383.302,44.564,384.861z"/>
					<path style="fill:#9E9E9E;" d="M38.192,440.114c-1.557,0-1.56,2.42,0,2.42C39.75,442.534,39.752,440.114,38.192,440.114z"/>
				</g>
			</g>
		</g>
	</g>
	<ellipse style="fill:#70777A;" cx="629.414" cy="480.417" rx="69.515" ry="8.656"/>
	<ellipse style="fill:#70777A;" cx="166.939" cy="480.417" rx="69.515" ry="8.656"/>
	<g>
		<path style="fill:#75332F;" d="M151.462,189.214c0,0-1.839-10.455-1.204-11.758s3.733-2.036,3.733-2.036s-3.018-1.263-2.117-3.456
			c0.191-0.466,5.929-2.236,12.34-2.722c10.671-0.808,14.774,2.1,13.161,5.117c0,0,4.093,0.652,3.803,2.691
			c-0.291,2.039-2.63,19.424-4.184,22.019c-2.181,3.643-6.86,4.753-11.629,4.753C160.593,203.824,153.98,203.846,151.462,189.214z"
			/>
		<g>
			<g>
				<g>
					<path style="fill:#3B1C05;" d="M216.97,477.172l-35.748-0.691l0.062-2.308l0.421-16.197l14.078,0.067
						c0,0-0.215,10.374,11.111,9.723c8.442-0.486,10.071,4.007,10.241,6.946C217.221,476.121,216.97,477.172,216.97,477.172z"/>
				</g>
				<g>
					<polygon style="fill:none;stroke:#0D0000;stroke-width:0.75;stroke-miterlimit:10;" points="185.374,475.037 185.023,458.004 
						185.261,457.98 185.613,475.014 					"/>
				</g>
				<g>
					<path style="fill:none;stroke:#0D0000;stroke-width:0.75;stroke-miterlimit:10;" d="M194.108,475.358l-0.238-0.011
						c0.326-2.501-0.197-4.362-1.551-5.531c-2.465-2.126-6.899-1.252-6.944-1.242l-0.032-0.223c0.047-0.009,4.597-0.907,7.144,1.29
						C193.897,470.86,194.442,472.783,194.108,475.358z"/>
				</g>
				<g>
					<path style="fill:#FFFFFF;" d="M216.97,477.172l-35.748-0.691l0.062-2.308l35.852,0.538
						C217.221,476.121,216.97,477.172,216.97,477.172z"/>
				</g>
			</g>
			<path style="fill:#4C4034;" d="M137.244,296.723l3.026,161.32c0,0,10.786,0,19.674-0.067l6.295-124.767l5.534-0.507
				l5.779,125.274c0,0,14.248,0.067,19.206,0.067l-1.394-161.324L137.244,296.723z"/>
			<path style="fill:none;stroke:#0D0000;stroke-width:0.75;stroke-miterlimit:10;" d="M162.743,296.821
				c0,0-1.569,25.124,6.005,26.672l0.539-26.672"/>
			
				<line style="fill:none;stroke:#0D0000;stroke-width:0.75;stroke-miterlimit:10;" x1="159.944" y1="333.712" x2="177.552" y2="332.2"/>
			
				<line style="fill:none;stroke:#0D0000;stroke-width:0.75;stroke-miterlimit:10;" x1="140.245" y1="296.718" x2="142.651" y2="457.758"/>
			
				<line style="fill:none;stroke:#0D0000;stroke-width:0.75;stroke-miterlimit:10;" x1="153.197" y1="300.006" x2="140.675" y2="322.322"/>
			<g>
				<g>
					<path style="fill:#3B1C05;" d="M120.256,477.172l35.787-0.691l0.069-2.308l0.5-16.197l-14.082,0.067
						c0,0-0.376,10.374-11.664,9.723c-8.415-0.486-10.299,4.007-10.637,6.946C120.066,476.121,120.256,477.172,120.256,477.172z"/>
				</g>
				<g>
					<polygon style="fill:none;stroke:#0D0000;stroke-width:0.75;stroke-miterlimit:10;" points="151.974,475.037 153.295,458.004 
						153.057,457.98 151.737,475.014 					"/>
				</g>
				<g>
					<path style="fill:none;stroke:#0D0000;stroke-width:0.75;stroke-miterlimit:10;" d="M143.222,475.358l0.238-0.011
						c-0.183-2.501,0.445-4.362,1.866-5.531c2.586-2.126,6.97-1.252,7.015-1.242l0.045-0.223c-0.047-0.009-4.545-0.907-7.218,1.29
						C143.689,470.86,143.034,472.783,143.222,475.358z"/>
				</g>
				<g>
					<path style="fill:#FFFFFF;" d="M120.256,477.172l35.787-0.691l0.069-2.308l-35.883,0.538
						C120.066,476.121,120.256,477.172,120.256,477.172z"/>
				</g>
			</g>
			
				<line style="fill:none;stroke:#0D0000;stroke-width:0.75;stroke-miterlimit:10;" x1="194.378" y1="458.043" x2="192.232" y2="296.722"/>
			
				<line style="fill:none;stroke:#0D0000;stroke-width:0.75;stroke-miterlimit:10;" x1="177.552" y1="302.055" x2="192.6" y2="324.365"/>
			
				<line style="fill:none;stroke:#0D0000;stroke-width:0.75;stroke-miterlimit:10;" x1="166.24" y1="333.209" x2="162.743" y2="337.941"/>
			
				<line style="fill:none;stroke:#0D0000;stroke-width:0.75;stroke-miterlimit:10;" x1="171.774" y1="332.702" x2="176.546" y2="337.038"/>
			<polygon style="fill:#6E5C4B;" points="159.944,457.976 160.359,450.926 135.201,450.926 136.362,457.976 			"/>
			<polygon style="fill:#6E5C4B;" points="177.58,457.976 177.165,450.926 202.323,450.926 201.162,457.976 			"/>
		</g>
		<g>
			<g>
				<g>
					<polygon style="fill:#4476AC;" points="194.428,217.614 174.883,213.258 156.001,213.258 136.19,217.951 134.967,309.687 
						197.099,309.687 					"/>
				</g>
			</g>
		</g>
		<polygon style="fill:#538FD1;" points="134.967,309.687 197.099,309.687 196.978,305.517 135.022,305.517 		"/>
		<polygon style="fill:#538FD1;" points="148.152,215.117 165.595,228.132 183.743,215.232 174.883,213.258 156.001,213.258 		"/>
		<polygon style="fill:#EF9370;" points="157.05,198.749 156.001,213.258 165.518,222.562 174.883,213.258 173.415,198.749 		"/>
		<path style="fill:#EF9C7C;" d="M177.484,190.187c0,7.01-3.298,16.257-11.655,16.257c-8.745,0-11.655-9.246-11.655-16.257
			c0-7.011,5.218-12.694,11.655-12.694C172.266,177.493,177.484,183.176,177.484,190.187z"/>
		<path style="fill:#623329;" d="M162.85,187.087c0,0.281-1.567,0.509-2.495,0.509c-0.928,0-1.247-0.228-1.247-0.509
			c0-0.281,1.134-0.509,2.062-0.509C162.098,186.577,162.85,186.805,162.85,187.087z"/>
		<path style="fill:#2C1817;" d="M162.646,190.493c0,0.532-0.205,0.963-0.458,0.963c-0.253,0-0.458-0.431-0.458-0.963
			c0-0.532,0.205-0.963,0.458-0.963C162.441,189.531,162.646,189.962,162.646,190.493z"/>
		<path style="fill:#623329;" d="M168.807,187.087c0,0.281,1.567,0.509,2.495,0.509c0.928,0,1.248-0.228,1.248-0.509
			c0-0.281-1.134-0.509-2.062-0.509S168.807,186.805,168.807,187.087z"/>
		<path style="fill:#2C1817;" d="M169.011,190.493c0,0.532,0.205,0.963,0.458,0.963c0.253,0,0.458-0.431,0.458-0.963
			c0-0.532-0.205-0.963-0.458-0.963C169.216,189.531,169.011,189.962,169.011,190.493z"/>
		<path style="fill:#EF9C7C;" d="M154.69,190.427c0,1.401-1.129,2.473-2.522,2.395c-1.393-0.078-2.522-1.278-2.522-2.678
			c0-1.401,1.129-2.473,2.522-2.395C153.561,187.827,154.69,189.026,154.69,190.427z"/>
		<path style="fill:none;stroke:#0D0000;stroke-width:0.5;stroke-miterlimit:10;" d="M150.795,189.513
			c1.015-0.089,2.061,0.322,2.745,1.076c-0.664-0.053-1.396,0.191-1.901,0.624"/>
		<path style="fill:#EF9C7C;" d="M176.441,190.499c0,1.401,1.129,2.473,2.522,2.395c1.393-0.078,2.522-1.278,2.522-2.678
			c0-1.401-1.129-2.473-2.522-2.395C177.571,187.899,176.441,189.098,176.441,190.499z"/>
		<path style="fill:none;stroke:#0D0000;stroke-width:0.5;stroke-miterlimit:10;" d="M180.336,189.441
			c-1.015-0.089-2.061,0.322-2.745,1.076c0.664-0.053,1.396,0.191,1.901,0.624"/>
		<path style="fill:none;stroke:#0D0000;stroke-width:0.5;stroke-miterlimit:10;" d="M165.658,191.456c0,0-0.323,3.832-0.777,4.059
			s-1.567,0.589-2.031,0.771c-0.464,0.181,1.113,1.315,2.592,1.36"/>
		<path style="fill:#EF9C7C;" d="M130.844,282.208l8.71-31.547l-6.403-29.264c0,0-11.077,32.656-16.385,60.811
			c-1.236,6.556,25.013,37.914,25.013,37.914l4.052-7.216L130.844,282.208z"/>
		
			<line style="fill:none;stroke:#0D0000;stroke-width:0.75;stroke-miterlimit:10;" x1="130.844" y1="282.208" x2="128.103" y2="278.167"/>
		<path style="fill:#4476AC;" d="M136.19,217.951c0,0-4.554,1.531-7.236,7.367c-1.879,4.09-9.546,35.188-9.546,35.188l20.146,6.658
			l8.963-44.546L136.19,217.951z"/>
		<polygon style="fill:#E0E0E0;" points="164.675,215.583 165.518,222.562 159.451,219.066 		"/>
		<polygon style="fill:#FFFFFF;" points="156.246,209.874 150.795,214.491 159.257,220.592 164.675,215.583 		"/>
		<polygon style="fill:#E0E0E0;" points="166.361,215.583 165.518,222.562 171.585,219.066 		"/>
		<polygon style="fill:#FFFFFF;" points="174.517,209.643 180.24,214.491 171.779,220.592 166.361,215.583 		"/>
		
			<line style="fill:none;stroke:#0D0000;stroke-width:0.75;stroke-miterlimit:10;" x1="195.824" y1="265.722" x2="194.912" y2="234.288"/>
		
			<line style="fill:none;stroke:#0D0000;stroke-width:0.75;stroke-miterlimit:10;" x1="120.584" y1="255.788" x2="135.623" y2="260.504"/>
		<path style="fill:#EF9C7C;" d="M199.836,282.208l-8.71-31.547l6.403-29.264c0,0,11.077,32.656,16.385,60.811
			c1.236,6.556-25.013,37.914-25.013,37.914l-4.052-7.216L199.836,282.208z"/>
		
			<line style="fill:none;stroke:#0D0000;stroke-width:0.75;stroke-miterlimit:10;" x1="199.836" y1="282.208" x2="202.577" y2="278.167"/>
		<path style="fill:#4476AC;" d="M194.428,217.614c0,0,4.616,1.868,7.298,7.704c1.879,4.09,9.545,35.188,9.545,35.188l-20.146,6.658
			l-8.963-44.546L194.428,217.614z"/>
		<polygon style="fill:#4F89C7;" points="136.446,246.377 142.289,250.33 150.229,245.886 156.383,250.887 166.999,244.963 
			174.076,250.887 183.743,244.963 189,250.887 194.696,245.348 194.912,247.925 189.073,253.718 183.743,247.579 174.384,253.194 
			166.614,247.194 156.46,253.718 150.075,247.425 142.69,252.964 136.319,248.818 		"/>
		<polygon style="fill:#4F89C7;" points="136.446,255.265 142.289,259.218 150.229,254.774 156.383,259.775 166.999,253.851 
			174.076,259.775 183.743,253.851 189,259.775 194.696,254.236 194.912,256.813 189.073,262.606 183.743,256.467 174.384,262.082 
			166.614,256.082 156.46,262.606 150.075,256.313 142.69,261.852 136.319,257.706 		"/>
		
			<line style="fill:none;stroke:#0D0000;stroke-width:0.75;stroke-miterlimit:10;" x1="210.096" y1="255.788" x2="195.058" y2="260.504"/>
		<path style="opacity:0.1;fill:#FFFFFF;" d="M144.601,390.01c0,0,2.231-1.45,7.362-1.785c5.131-0.335,7.098,1.785,7.098,1.785
			s-0.781,1.227-7.23,1.562C145.382,391.906,144.824,390.791,144.601,390.01z"/>
		<path style="opacity:0.1;fill:#FFFFFF;" d="M192.896,390.01c0,0-2.231-1.45-7.362-1.785c-5.131-0.335-7.097,1.785-7.097,1.785
			s0.781,1.227,7.23,1.562C192.115,391.906,192.673,390.791,192.896,390.01z"/>
		
			<line style="fill:none;stroke:#0D0000;stroke-width:0.75;stroke-miterlimit:10;" x1="137.244" y1="234.288" x2="135.598" y2="265.917"/>
		
			<line style="fill:none;stroke:#0D0000;stroke-width:0.75;stroke-miterlimit:10;" x1="195.058" y1="265.864" x2="194.378" y2="233.376"/>
		<path style="fill:#75332F;" d="M166.342,176.629c0,0-5.545,4.996-5.41,6.287c0.135,1.291,11.605,2.147,15.48-2.681
			C180.288,175.408,166.342,176.629,166.342,176.629z"/>
		<path style="fill:#75332F;" d="M164.213,179.397c0,0-6.405,3.803-10.039,3.808c-3.634,0.005,5.74-10.27,11.859-8.77
			C172.153,175.935,164.213,179.397,164.213,179.397z"/>
		<path style="fill:#75332F;" d="M155.574,181.974l-2.806,2.5l1.406,4.401c0.222,0.284,3.21-1.401,3.562-2.766
			C158.087,184.743,155.574,181.974,155.574,181.974z"/>
		<g>
			<g>
				<path style="fill:#FFFFFF;" d="M155.947,194.378c0,0,0.025,2.243-0.734,4.662c0,0,2.533,8.857,9.524,8.779
					c6.991-0.078,10.37-7.379,10.37-7.379l-0.336-6.037C174.77,194.403,167.096,192.337,155.947,194.378z"/>
				<path style="fill:#3AE4BF;" d="M156.958,195.034c0,0-0.432,2.971-0.849,4.149c0,0,3.041,7.517,9.179,7.517
					c4.887,0,8.735-6.143,8.735-6.143l-0.476-5.726C173.548,194.831,165.259,193.456,156.958,195.034z"/>
			</g>
			<path style="fill:none;stroke:#FFFFFF;stroke-width:0.5;stroke-linecap:round;stroke-miterlimit:10;" d="M150.419,187.816
				c0,0,4.219-6.725,5.793,6.514"/>
			<path style="fill:none;stroke:#FFFFFF;stroke-width:0.5;stroke-linecap:round;stroke-miterlimit:10;" d="M152.976,192.727
				c0,0,0.745,5.6,2.598,6.372"/>
			<path style="fill:none;stroke:#FFFFFF;stroke-width:0.5;stroke-linecap:round;stroke-miterlimit:10;" d="M179.7,187.596
				c0,0-3.618-5.904-5.192,7.335"/>
			<path style="fill:none;stroke:#FFFFFF;stroke-width:0.5;stroke-linecap:round;stroke-miterlimit:10;" d="M178.642,192.825
				c0,0-2.099,6.891-3.952,7.663"/>
			<polygon style="fill:#3EF2CB;" points="160.982,198.641 160.982,199.37 169.876,199.37 169.726,198.641 			"/>
			<polygon style="fill:#3EF2CB;" points="161.924,200.834 161.924,201.564 169.266,201.564 169.116,200.834 			"/>
		</g>
	</g>
	<g>
		<g>
			<polygon style="fill:#C2785D;" points="609.037,448.847 605.855,471.762 619.625,471.762 622.396,448.847 			"/>
			<path style="fill:#273D51;" d="M578.574,474.03c0,0,3.103-6.421,8.969-8.085c5.866-1.665,11.476,0.495,13.565,0
				c2.089-0.496,5.758-6.175,7.598-6.024c1.84,0.151,3.218,7.174,6.736,6.819c3.518-0.355,3.008-8.071,5.474-8.071
				c2.466,0,1.641,15.362,1.641,15.362H578.574z"/>
			<polygon style="fill:#FFFFFF;" points="578.574,474.03 622.555,474.03 622.344,477.172 578.363,477.172 			"/>
			<path style="fill:none;stroke:#0D0000;stroke-width:0.75;stroke-miterlimit:10;" d="M592.208,465.327
				c0,0,2.265,2.999,1.971,5.851h28.478"/>
			
				<line style="fill:none;stroke:#0D0000;stroke-width:0.75;stroke-miterlimit:10;" x1="599.056" y1="465.933" x2="600.13" y2="468.252"/>
			
				<line style="fill:none;stroke:#0D0000;stroke-width:0.75;stroke-miterlimit:10;" x1="601.818" y1="465.624" x2="602.908" y2="467.436"/>
		</g>
		<g>
			<polygon style="fill:#C2785D;" points="656.99,448.848 657.75,471.762 671.52,471.762 670.349,448.848 			"/>
			<path style="fill:#273D51;" d="M630.858,474.03c0,0,1.998-6.421,7.578-8.085c5.58-1.664,11.561,0.496,13.564,0
				c2.003-0.495,4.696-6.175,6.561-6.024c1.866,0.151,4.452,7.174,7.909,6.819c3.457-0.355,1.619-8.071,4.086-8.071
				c2.466,0,4.283,15.361,4.283,15.361L630.858,474.03z"/>
			<polygon style="fill:#FFFFFF;" points="630.858,474.03 674.84,474.03 675.17,477.172 631.188,477.172 			"/>
			<path style="fill:none;stroke:#0D0000;stroke-width:0.75;stroke-miterlimit:10;" d="M642.996,465.327
				c0,0,2.781,2.999,2.977,5.851h28.478"/>
			
				<line style="fill:none;stroke:#0D0000;stroke-width:0.75;stroke-miterlimit:10;" x1="649.948" y1="465.933" x2="651.421" y2="468.252"/>
			
				<line style="fill:none;stroke:#0D0000;stroke-width:0.75;stroke-miterlimit:10;" x1="652.657" y1="465.624" x2="654.059" y2="467.437"/>
		</g>
		<g>
			<path style="fill:#273D51;" d="M656.534,211.495c0,0,13.042,3.285,17.648,12.787c1.932,3.986,5.693,28.726,6.262,32.667
				c0.569,3.941-11.065,5.653-15.384,6.746C660.741,264.789,656.534,211.495,656.534,211.495z"/>
			<g>
				<polygon style="fill:#C2785D;" points="644.786,187.383 649.025,213.736 633.248,219.696 631.984,198.335 				"/>
				<path style="fill:#C2785D;" d="M619.635,189.406c2.014,16.606,3.927,27.939,18.197,13.534c4.944-4.99,8.25-9.82,6.696-16.67
					c-1.554-6.85-8.366-11.144-15.216-9.59C622.462,178.234,618.789,182.433,619.635,189.406z"/>
			</g>
			<g>
				<path style="fill:#273D51;" d="M618.052,229.384c0.437-7.883,32.856-18.925,32.856-18.925s3.936-0.841,5.625,1.036
					c3.177,3.529,11.291,9.702,13.663,14.888c3.685,8.057,3.934,84.866,3.934,84.866h-59.557
					C614.574,311.249,617.371,241.678,618.052,229.384z"/>
				<path style="fill:#273D51;" d="M630.489,218.965c0,0-16.987,6.893-19.002,8.994c-2.015,2.102-10.744,31.178-10.934,33.63
					c-0.19,2.452,2.513,9.283,7.234,8.583c4.721-0.701,11.553-2.277,11.553-2.277L630.489,218.965z"/>
				<path style="fill:#FFD091;" d="M656.534,211.495c0,0-2.114-2.717-4.459-2.63c-2.345,0.088-17.211,4.019-21.509,5.12
					c-1.282,0.328-2.404,1.115-3.331,1.997c-1.811,1.722-2.013,2.941-2.336,5.322L656.534,211.495"/>
			</g>
			<g>
				<path style="fill:#572D18;" d="M610.456,298.342c0,0,0.247-4.89,5.55-11.512l-0.311,8.884
					C615.695,295.714,613.702,297.711,610.456,298.342z"/>
				<path style="fill:#804223;" d="M666.042,244.217l-34.91,39.185l4.997,4.415c0,0,3.606-0.946,11.648,1.892
					c8.042,2.839,24.784-17.704,22.734-24.306c-2.05-6.602,0.172-16.897,0.172-16.897L666.042,244.217z"/>
				<path style="fill:#914B29;" d="M656.534,211.495c0,0,10.064,16.309,10.96,20.972s-0.545,9.035-1.452,11.75l4.642,4.289
					c0,0,1.807-8.142,1.636-13.387c-0.171-5.245-5.703-16.967-7.888-20.36C663.524,213.348,656.534,211.495,656.534,211.495z"/>
				<path style="fill:#914B29;" d="M631.133,283.402l4.997,4.415c0,0-13.95,14.515-23.847,16.208l-1.827-5.684
					C610.456,298.342,621.505,292.589,631.133,283.402z"/>
				<path style="fill:#572D18;" d="M644.106,282.73c0,0,11.659-14.275,19.547-20.405c0,0,4.954,4.29,4.1,6.828
					c-0.854,2.538-10.08,14.05-13.497,15.469C650.84,286.042,644.106,282.73,644.106,282.73z"/>
				<path style="fill:none;stroke:#0D0000;stroke-width:0.75;stroke-miterlimit:10;" d="M636.369,283.4
					c4.752-6.129,10.323-11.674,15.876-17.199c4.907-4.883,9.814-9.765,14.722-14.648"/>
			</g>
			
				<line style="fill:none;stroke:#0D0000;stroke-width:0.75;stroke-miterlimit:10;" x1="616.609" y1="268.501" x2="617.822" y2="241.972"/>
			
				<line style="fill:none;stroke:#0D0000;stroke-width:0.75;stroke-miterlimit:10;" x1="673.013" y1="261.844" x2="672.253" y2="244.217"/>
			<polygon style="fill:#647798;" points="674.13,311.249 674.13,457.758 654.34,457.758 644.352,340.894 624.57,457.758 
				604.493,457.758 614.574,311.249 			"/>
			<path style="fill:#441B15;" d="M647.217,202.496c-1.37,2.322-14.937,4.991-18.297-2.706c-1.461-3.346-2.38-8.869-4.071-8.446
				c0,0-0.993,2.493-1.928,1.604c-0.935-0.889-1.396-6.428-1.396-6.428s-2.462-1.231-4.154-2.615
				c-1.692-1.385-2.154-13.847-1.077-14.308c1.077-0.462,3.221,1.692,3.221,1.692s0.364-3.077,1.264-3.077s2.634,3.077,2.634,3.077
				s14.318-4.308,18.446-3.077C645.987,169.443,658.755,182.932,647.217,202.496z"/>
			<path style="fill:none;stroke:#FFFFFF;stroke-width:0.5;stroke-linecap:round;stroke-miterlimit:10;" d="M620.779,195.78
				c0,0,2.133-9.248,5.228-5.504"/>
			<path style="fill:#C2785D;" d="M624.429,192.898c0,1.683,1.357,2.971,3.03,2.877c1.674-0.094,3.03-1.535,3.03-3.218
				s-1.357-2.971-3.03-2.877C625.785,189.774,624.429,191.215,624.429,192.898z"/>
			<path style="fill:none;stroke:#0D0000;stroke-width:0.5;stroke-miterlimit:10;" d="M629.108,191.627
				c-1.219-0.107-2.476,0.386-3.298,1.293c0.797-0.064,1.677,0.229,2.284,0.749"/>
			<path style="fill:none;stroke:#FFFFFF;stroke-width:0.5;stroke-linecap:round;stroke-miterlimit:10;" d="M629.955,194.312
				c0,0,3.474,7.457-3.276,12.171"/>
			<path style="fill:#3AE4BF;" d="M620.457,195.29l0.322-0.189l6.68,11.266c0,0-1.264,1.544-2.724,2.07
				C624.735,208.437,620.927,206.54,620.457,195.29z"/>
		</g>
		
			<line style="fill:none;stroke:#0D0000;stroke-width:0.75;stroke-miterlimit:10;" x1="651.802" y1="340.441" x2="636.13" y2="340.441"/>
		<polyline style="fill:none;stroke:#0D0000;stroke-width:0.75;stroke-miterlimit:10;" points="649.956,344.94 644.352,340.441 
			639.973,344.94 		"/>
		<polygon style="fill:#8098C2;" points="625.69,457.758 602.255,457.758 603.074,451.521 626.46,451.521 		"/>
		<polygon style="fill:#8098C2;" points="675.394,457.758 651.958,457.758 652.778,451.521 676.163,451.521 		"/>
		
			<line style="fill:none;stroke:#0D0000;stroke-width:0.75;stroke-miterlimit:10;" x1="617.822" y1="311.249" x2="608.666" y2="451.521"/>
		
			<line style="fill:none;stroke:#0D0000;stroke-width:0.75;stroke-miterlimit:10;" x1="616.8" y1="326.904" x2="613.813" y2="322.305"/>
		<polygon style="fill:#FFD091;" points="674.089,304.82 614.574,304.82 614.574,311.249 674.13,311.249 		"/>
		
			<line style="fill:none;stroke:#0D0000;stroke-width:0.75;stroke-miterlimit:10;" x1="674.13" y1="314.286" x2="614.407" y2="314.286"/>
	</g>
</g>
</svg>
